<svg
  width="100"
  height="100"
  viewBox="0 0 100 100"
  fill="none"
  xmlns="http://www.w3.org/2000/svg"
>
  <rect width="100" height="100" rx="9" fill="white" />
  <path
    d="M16.1406 84V81.75C16.3906 81.5938 16.8281 81.3438 17.4531 81C18.6406 80.3438 19.7344 79.6562 20.7344 78.9375C21.0781 74.75 21.25 67.9531 21.25 58.5469V50.8594C21.25 46.7344 21.1719 40.6875 21.0156 32.7188C20.9219 28.3125 20.7188 25.5 20.4062 24.2812C20.3125 24 20.1875 23.7812 20.0312 23.625C19.7812 23.375 19.3906 23.1875 18.8594 23.0625C18.3281 22.9375 16.3594 22.6562 12.9531 22.2188V18.4219L29.9688 18.7031C31.9688 18.7031 35.7344 18.625 41.2656 18.4688C45.2656 18.375 48.4688 18.3281 50.875 18.3281C56.4062 18.3281 60.8281 18.6719 64.1406 19.3594C67.4844 20.0156 70.3906 21.0938 72.8594 22.5938C75.3281 24.0625 77.4062 25.8125 79.0938 27.8438C80.8125 29.875 82.1094 32.0625 82.9844 34.4062C84.4531 38.3438 85.1875 42.6562 85.1875 47.3438C85.1875 53.3125 84.0938 58.6406 81.9062 63.3281C79.7188 68.0156 76.7031 71.9375 72.8594 75.0938C69.0469 78.25 64.9062 80.5312 60.4375 81.9375C55.9688 83.3125 50.5781 84 44.2656 84L30.3438 83.7188L16.1406 84ZM34.8906 78.2812C37.7969 78.7188 40.5781 78.9375 43.2344 78.9375C47.3906 78.9375 51.0781 78.5 54.2969 77.625C56.6719 76.9688 58.75 76.0156 60.5312 74.7656C62.3125 73.5156 64.0156 71.6719 65.6406 69.2344C67.2969 66.7969 68.5781 63.8906 69.4844 60.5156C70.3906 57.1406 70.8438 53.5 70.8438 49.5938C70.8438 46.0312 70.3906 42.5938 69.4844 39.2812C68.5781 35.9375 67.0938 33.0156 65.0312 30.5156C62.9688 28.0156 60.3594 26.2031 57.2031 25.0781C54.0469 23.9531 49.2656 23.3906 42.8594 23.3906C40.4531 23.3906 37.7969 23.5937 34.8906 24C34.5781 28.4375 34.4219 36.7969 34.4219 49.0781V59.8594C34.4219 69.1719 34.5781 75.3125 34.8906 78.2812Z"
    fill="#1E1E1E"
  />
</svg>
