<svg width="32" height="32" viewBox="0 0 32 32" fill="none" xmlns="http://www.w3.org/2000/svg">
<rect width="32" height="32" fill="white"/>
<rect width="32" height="32" fill="#0000FF"/>
<path d="M11.9747 22.4874V10.5126H14.8101C15.789 10.5126 16.6076 10.6634 17.2658 10.965C17.9409 11.2488 18.481 11.6657 18.8861 12.2157C19.2911 12.7656 19.5781 13.4309 19.7468 14.2115C19.9325 14.9743 20.0253 15.8347 20.0253 16.7927C20.0253 17.8394 19.8987 18.7264 19.6456 19.4538C19.3924 20.1811 19.0549 20.7754 18.6329 21.2367C18.211 21.6802 17.73 21.9995 17.1899 22.1947C16.6498 22.3898 16.0928 22.4874 15.519 22.4874H11.9747ZM8 7V26H15.7975C17.1814 26 18.3797 25.7605 19.3924 25.2815C20.4219 24.7848 21.2743 24.1106 21.9494 23.2591C22.6413 22.4076 23.1561 21.3964 23.4937 20.2255C23.8312 19.0546 24 17.7773 24 16.3936C24 14.8147 23.789 13.4398 23.3671 12.2689C22.962 11.098 22.3882 10.1223 21.6456 9.34174C20.9198 8.56116 20.0506 7.97572 19.038 7.58543C18.0422 7.19514 16.962 7 15.7975 7H8Z" fill="white"/>
</svg>
